HIERARCHY
ROOT Hips
{
 OFFSET 0.000000 0.000000 0.000000
 CHANNELS 6 Xposition Yposition Zposition Yrotation Xrotation Zrotation
 JOINT Chest
 {
  OFFSET 0.000000 9.585900 0.002600
  CHANNELS 3 Yrotation Xrotation Zrotation
  JOINT Chest2
  {
   OFFSET 0.000000 9.601200 -0.005300
   CHANNELS 3 Yrotation Xrotation Zrotation
   JOINT Chest3
   {
    OFFSET 0.000000 9.561800 0.000000
    CHANNELS 3 Yrotation Xrotation Zrotation
    JOINT Chest4
    {
     OFFSET 0.000000 9.552100 0.000000
     CHANNELS 3 Yrotation Xrotation Zrotation
     JOINT Neck
     {
      OFFSET 0.000000 14.453000 0.000000
      CHANNELS 3 Yrotation Xrotation Zrotation
      JOINT Head
      {
       OFFSET 0.000000 8.936500 -0.011300
       CHANNELS 3 Yrotation Xrotation Zrotation
       End Site
       {
        OFFSET 0.000000 17.073600 -0.006000
       }
      }
     }
     JOINT RightCollar
     {
      OFFSET -2.921100 9.558500 0.000000
      CHANNELS 3 Yrotation Xrotation Zrotation
      JOINT RightShoulder
      {
       OFFSET -13.519700 0.000000 0.000000
       CHANNELS 3 Yrotation Xrotation Zrotation
       JOINT RightElbow
       {
        OFFSET 0.000000 -29.696600 0.000000
        CHANNELS 3 Yrotation Xrotation Zrotation
        JOINT RightWrist
        {
         OFFSET 0.000000 -24.004700 0.000000
         CHANNELS 3 Yrotation Xrotation Zrotation
         End Site
         {
          OFFSET 0.000000 -17.728500 0.000000
         }
        }
       }
      }
     }
     JOINT LeftCollar
     {
      OFFSET 2.921100 9.558500 0.000000
      CHANNELS 3 Yrotation Xrotation Zrotation
      JOINT LeftShoulder
      {
       OFFSET 13.519700 0.000000 0.000000
       CHANNELS 3 Yrotation Xrotation Zrotation
       JOINT LeftElbow
       {
        OFFSET 0.000000 -29.696600 0.000000
        CHANNELS 3 Yrotation Xrotation Zrotation
        JOINT LeftWrist
        {
         OFFSET 0.000000 -24.004700 0.000000
         CHANNELS 3 Yrotation Xrotation Zrotation
         End Site
         {
          OFFSET 0.000000 -17.728500 0.000000
         }
        }
       }
      }
     }
    }
   }
  }
 }
 JOINT RightHip
 {
  OFFSET -7.771700 -0.012900 -0.001300
  CHANNELS 3 Yrotation Xrotation Zrotation
  JOINT RightKnee
  {
   OFFSET 0.000000 -40.869800 0.001200
   CHANNELS 3 Yrotation Xrotation Zrotation
   JOINT RightAnkle
   {
    OFFSET 0.000000 -39.717900 0.002100
    CHANNELS 3 Yrotation Xrotation Zrotation
    JOINT RightToe
    {
     OFFSET 0.000000 -4.965400 11.033500
     CHANNELS 3 Yrotation Xrotation Zrotation
     End Site
     {
      OFFSET 0.000000 -1.423100 5.872300
     }
    }
   }
  }
 }
 JOINT LeftHip
 {
  OFFSET 7.771700 -0.012900 -0.001300
  CHANNELS 3 Yrotation Xrotation Zrotation
  JOINT LeftKnee
  {
   OFFSET 0.000000 -40.869800 0.001200
   CHANNELS 3 Yrotation Xrotation Zrotation
   JOINT LeftAnkle
   {
    OFFSET 0.000000 -39.717900 0.002100
    CHANNELS 3 Yrotation Xrotation Zrotation
    JOINT LeftToe
    {
     OFFSET 0.000000 -4.965400 11.033500
     CHANNELS 3 Yrotation Xrotation Zrotation
     End Site
     {
      OFFSET 0.000000 -1.423100 5.872300
     }
    }
   }
  }
 }
}
MOTION
Frames: 11
Frame Time: 0.008333
-206.628502 57.935928 26.965049 172.518762 -46.921993 -2.923164 4.925188 20.702260 3.022767 2.579986 11.872301 1.560630 3.297271 14.818515 2.038890 2.578910 11.867975 1.542356 1.093349 14.789048 1.991396 1.346489 -8.399143 3.216136 1.616137 2.135951 0.562159 4.318653 -11.767162 -10.821861 -58.785114 -52.064423 109.445357 -5.308698 7.027709 -29.989366 -9.829447 -1.322321 -1.108627 -3.428888 -11.615463 15.537199 41.540814 -38.565370 -99.485473 13.667042 -7.962379 17.768110 4.583210 -25.481378 -0.644145 -39.376009 73.121942 -41.595671 5.534835 -12.526851 10.346956 0.045217 -0.160323 0.015433 -4.174512 -24.015669 10.312977 56.004086 79.066067 55.791518 5.495137 -15.971171 -17.394793 0.036967 0.121466 0.014021
-206.627634 57.934967 26.964010 172.517269 -46.905207 -2.923296 4.923777 20.693679 3.027167 2.578605 11.869865 1.562495 3.297532 14.813632 2.033798 2.583063 11.864543 1.568762 1.095458 14.766359 1.938670 1.429326 -8.507727 3.065626 1.614068 2.127381 0.555210 4.315586 -11.762774 -10.835620 -58.890376 -52.109277 109.524049 -5.253818 7.057145 -29.938746 -9.834944 -1.317579 -1.129607 -3.373146 -11.602102 15.508824 41.716993 -38.724485 -99.531022 13.620114 -7.849126 17.803315 4.584772 -25.499384 -0.646804 -39.390052 73.132322 -41.600546 5.522375 -12.538612 10.340146 0.040998 -0.155602 0.016148 -4.175560 -24.034029 10.314456 56.024589 79.068849 55.816200 5.497365 -15.973889 -17.398206 0.038963 0.121933 0.013862
-206.627889 57.935032 26.961783 172.506357 -46.898607 -2.908739 4.922918 20.694003 3.020560 2.582759 11.869186 1.565757 3.294140 14.808940 2.036073 2.589992 11.869870 1.570813 1.112815 14.712503 1.879642 1.496084 -8.588257 2.947097 1.615299 2.108951 0.557653 4.308102 -11.751763 -10.845529 -59.034585 -52.168437 109.628264 -5.190280 7.097323 -29.889966 -9.852435 -1.298677 -1.109975 -3.298987 -11.609548 15.453174 41.931700 -38.908941 -99.577045 13.547218 -7.720676 17.859017 4.595552 -25.507636 -0.653943 -39.402133 73.134200 -41.611128 5.508410 -12.537123 10.343156 0.037397 -0.156901 0.014362 -4.165076 -24.036190 10.300590 56.031643 79.060228 55.827559 5.503090 -15.980364 -17.402187 0.049183 0.127329 0.014336
-206.627065 57.935415 26.959554 172.502717 -46.895451 -2.905369 4.925242 20.700990 3.027686 2.587750 11.868601 1.565196 3.289491 14.807936 2.041480 2.598980 11.872716 1.567565 1.128182 14.661042 1.826751 1.559492 -8.670001 2.831446 1.605932 2.086958 0.565108 4.308852 -11.750552 -10.847269 -59.186877 -52.248540 109.720328 -5.117375 7.150491 -29.841464 -9.882220 -1.275496 -1.093141 -3.215476 -11.623640 15.397318 42.193819 -39.124242 -99.623337 13.452547 -7.576312 17.907160 4.601149 -25.512243 -0.656018 -39.423781 73.136591 -41.628687 5.506711 -12.537825 10.343339 0.039867 -0.159430 0.014707 -4.161334 -24.036648 10.298012 56.031005 79.057352 55.830525 5.510987 -15.983154 -17.407467 0.051751 0.130328 0.015717
-206.626025 57.934979 26.958238 172.492176 -46.887772 -2.898265 4.934568 20.701382 3.033549 2.595313 11.873268 1.567436 3.290194 14.804007 2.044000 2.603844 11.879882 1.567964 1.185193 14.580165 1.724167 1.569458 -8.723934 2.785118 1.592746 2.056714 0.577590 4.314341 -11.748960 -10.852116 -59.364441 -52.350941 109.818535 -5.036885 7.209110 -29.796604 -9.911895 -1.260064 -1.085647 -3.131240 -11.632243 15.346990 42.504060 -39.364395 -99.685792 13.340994 -7.428187 17.942592 4.610468 -25.523474 -0.658659 -39.447004 73.138066 -41.647351 5.513677 -12.536273 10.344400 0.042423 -0.163053 0.012348 -4.154702 -24.043359 10.297389 56.043607 79.053677 55.845862 5.519806 -15.983186 -17.412734 0.044729 0.132132 0.015734
-206.624823 57.934754 26.956906 172.492617 -46.883415 -2.899439 4.945513 20.715096 3.043050 2.593041 11.869099 1.565569 3.311360 14.823959 2.054256 2.587111 11.861143 1.564659 1.210540 14.542493 1.673412 1.625323 -8.809344 2.682861 1.583899 2.032150 0.596146 4.329703 -11.765681 -10.859487 -59.568084 -52.490238 109.907319 -4.950111 7.272206 -29.757450 -9.937786 -1.235351 -1.078942 -3.040194 -11.648683 15.289675 42.862731 -39.614033 -99.775513 13.208695 -7.283387 17.970426 4.609612 -25.527869 -0.659621 -39.449878 73.139309 -41.648284 5.524592 -12.536771 10.342831 0.039897 -0.165160 0.011384 -4.155761 -24.047011 10.297780 56.058298 79.049720 55.863808 5.515513 -15.983547 -17.414343 0.045158 0.131901 0.014566
-206.623234 57.934577 26.955739 172.489039 -46.881959 -2.899662 4.954516 20.726668 3.051322 2.598508 11.875442 1.566853 3.318364 14.831831 2.056130 2.592617 11.867452 1.565997 1.230322 14.496410 1.625182 1.680288 -8.895210 2.584806 1.554584 1.990367 0.620738 4.346953 -11.769882 -10.880604 -59.833370 -52.676510 110.040538 -4.846952 7.342790 -29.725647 -9.966398 -1.245523 -1.069701 -2.949038 -11.648545 15.221497 43.282238 -39.863718 -99.893670 13.050166 -7.135310 17.987199 4.610404 -25.529589 -0.656517 -39.454300 73.140435 -41.650484 5.522621 -12.538613 10.338647 0.044602 -0.163129 0.015342 -4.154724 -24.048347 10.300749 56.062250 79.049021 55.872102 5.514288 -15.981828 -17.417082 0.046090 0.131259 0.016729
-206.622741 57.934422 26.954539 172.480505 -46.883113 -2.889658 4.968771 20.746009 3.055074 2.604360 11.884196 1.568291 3.313748 14.820930 2.054557 2.615618 11.906314 1.569946 1.244452 14.441288 1.578261 1.734640 -8.982610 2.488784 1.523919 1.928713 0.642530 4.355606 -11.770076 -10.901996 -60.143051 -52.901222 110.192553 -4.720035 7.428836 -29.700332 -10.004622 -1.273091 -1.055590 -2.849304 -11.653372 15.139518 43.768351 -40.113286 -100.037532 12.860635 -6.974463 17.981482 4.614964 -25.529269 -0.660295 -39.470836 73.142447 -41.666548 5.521183 -12.544698 10.336169 0.050340 -0.160001 0.016467 -4.148400 -24.046493 10.296534 56.052527 79.052087 55.865700 5.512225 -15.980050 -17.417404 0.054358 0.127485 0.015249
-206.622042 57.933575 26.954322 172.479237 -46.879657 -2.887247 4.974666 20.752944 3.056786 2.607331 11.889180 1.569265 3.317574 14.825412 2.056698 2.618310 11.913086 1.570251 1.275615 14.425668 1.531892 1.788569 -9.067798 2.394636 1.510574 1.901818 0.669435 4.363441 -11.770297 -10.930239 -60.481513 -53.153271 110.359613 -4.572109 7.531991 -29.676069 -10.023622 -1.232563 -1.045698 -2.734907 -11.701186 15.041457 44.310038 -40.367150 -100.204983 12.632966 -6.798067 17.941470 4.612059 -25.533871 -0.658994 -39.481531 73.143772 -41.676172 5.506126 -12.547164 10.331811 0.035031 -0.157170 0.016805 -4.149635 -24.051058 10.292642 56.065440 79.051828 55.879306 5.526627 -15.978215 -17.419081 0.049885 0.128771 0.012743
-206.621643 57.933155 26.953988 172.474552 -46.880677 -2.881011 4.983102 20.764998 3.055792 2.610498 11.894531 1.570686 3.333629 14.855645 2.061687 2.610400 11.894586 1.570668 1.305189 14.414993 1.485155 1.839772 -9.145763 2.305118 1.497468 1.872996 0.672375 4.371163 -11.782750 -10.939036 -60.830276 -53.409875 110.521671 -4.409853 7.646231 -29.649887 -10.038953 -1.131241 -1.032487 -2.597176 -11.816669 14.923112 44.897744 -40.640817 -100.403368 12.376958 -6.616950 17.870687 4.611891 -25.534672 -0.658361 -39.485775 73.144237 -41.684403 5.500011 -12.545573 10.331455 0.041070 -0.158047 0.016283 -4.147417 -24.048053 10.285904 56.065119 79.050301 55.880718 5.533499 -15.981906 -17.422844 0.048746 0.133388 0.013764
-206.620961 57.931729 26.955084 172.469228 -46.873511 -2.877696 4.992027 20.784326 3.056088 2.635317 11.939869 1.571192 3.326318 14.832326 2.066440 2.643457 11.948726 1.567825 1.305478 14.331746 1.446150 1.884032 -9.214867 2.224118 1.451955 1.774824 0.693941 4.378970 -11.798914 -10.958344 -61.192860 -53.670300 110.695214 -4.245896 7.761487 -29.623241 -10.077075 -1.128267 -0.998318 -2.436980 -11.912785 14.785356 45.529834 -40.950692 -100.637809 12.122238 -6.444120 17.776639 4.614621 -25.542690 -0.657807 -39.467223 73.147177 -41.667976 5.503875 -12.547364 10.329388 0.037454 -0.156250 0.016352 -4.151755 -24.056561 10.283795 56.096379 79.043607 55.913068 5.531329 -15.979511 -17.428798 0.046813 0.133774 0.015746
